<svg viewBox="0 0 1400 985" xmlns="http://www.w3.org/2000/svg"><ellipse cx="709.35" cy="975.68" opacity=".1" rx="566.01" ry="9.32"/><path d="m1280 733.38h-1159.92a11 11 0 0 1 -11-11l-.08-711.38a11 11 0 0 1 11-11h1159.9a11 11 0 0 1 11 11l.06 711.35a11 11 0 0 1 -10.96 11.03z" fill="#4d4d4d"/><path d="m127.22 17.93h1145.49v53.69h-1145.49z" fill="#fafafa"/><path d="m127.22 71.63h1145.49v643.82h-1145.49z" fill="#e6e6e8"/><path d="m150.52 83.62h248.54v396.45h-248.54z" fill="#fff"/><path d="m413.4 462.63h837.03v169.74h-837.03z" fill="#fff"/><path d="m413.4 83.62h837.03v126.14h-837.03z" fill="#fff"/><path d="m477.93 119.66h203.13v38.37h-203.13z" fill="#e2e2e2"/><path d="m731.84 119.66h155.34v38.37h-155.34z" fill="#e2e2e2"/><path d="m988.75 119.66h103.96v38.37h-103.96z" fill="#e2e2e2"/><path d="m960.67 146.98h2.39v43.6h-2.39z" fill="#545454"/><path d="m706.75 146.98h2.39v43.6h-2.39z" fill="#545454"/><path d="m988.75 130.71h191.78v13.37h-191.78z" fill="#8fc899"/><path d="m731.84 130.71h191.78v13.37h-191.78z" fill="#8fc899"/><path d="m477.93 130.71h169.68v13.37h-169.68z" fill="#e7616a"/><path d="m413.4 223.72h837.03v224.97h-837.03z" fill="#fefefe"/><path d="m811.57-107.33h40.69v730.69h-40.69z" fill="#f9f9f9" transform="matrix(0 -1 1 0 573.9 1089.93)"/><path d="m466.58 237.67h2.99v197.64h-2.99z" fill="#e2e2e2"/><path d="m830.46 68.52h2.91v730.69h-2.91z" fill="#e2e2e2" transform="matrix(0 1 -1 0 1265.78 -398.06)"/><path d="m830.46-85.53h2.91v730.69h-2.91z" fill="#e2e2e2" transform="matrix(0 1 -1 0 1111.73 -552.11)"/><path d="m830.76-126.51h2.33v730.69h-2.33z" fill="#e2e2e2" transform="matrix(0 1 -1 0 1070.75 -593.09)"/><path d="m574.12 237.67h2.39v197.64h-2.39z" fill="#e2e2e2"/><path d="m827.44 237.67h2.99v197.64h-2.99z" fill="#e2e2e2"/><path d="m971.42 237.67h2.99v197.64h-2.99z" fill="#e2e2e2"/><path d="m1084.34 237.67h2.99v197.64h-2.99z" fill="#e2e2e2"/><path d="m1194.27 237.67h2.99v197.64h-2.99z" fill="#e2e2e2"/><path d="m599.21 295.22h206.12v16.28h-206.12z" fill="#e2e2e2"/><path d="m599.21 297.54h191.78v11.04h-191.78z" fill="#8fc899"/><path d="m599.21 366.72h206.12v16.28h-206.12z" fill="#e2e2e2"/><path d="m599.21 402.18h206.12v16.28h-206.12z" fill="#e2e2e2"/><path d="m746.18 295.22h5.38v16.28h-5.38z" fill="#646464"/><path d="m774.26 366.72h5.38v16.28h-5.38z" fill="#646464"/><path d="m599.21 369.04h115.91v11.04h-115.91z" fill="#e7616a"/><path d="m599.21 405.08h143.99v10.46h-143.99z" fill="#8fc899"/><path d="m661.35 402.18h5.38v16.28h-5.38z" fill="#646464"/><path d="m830.2 243.74h5.23v733.67h-5.23z" fill="#e2e2e2" transform="matrix(0 -1 1 0 222.24 1443.39)"/><path d="m486.29 561.46h33.46v32.55h-33.46z" fill="#69a0ef" transform="matrix(-1 0 0 -1 1006.04 1155.47)"/><path d="m534.09 517.28h33.46v76.73h-33.46z" fill="#69a0ef" transform="matrix(-1 0 0 -1 1101.63 1111.29)"/><path d="m581.88 531.23h31.07v62.78h-31.07z" fill="#69a0ef" transform="matrix(-1 0 0 -1 1194.84 1125.24)"/><path d="m629.68 492.86h31.07v101.15h-31.07z" fill="#69a0ef" transform="matrix(-1 0 0 -1 1290.43 1086.87)"/><path d="m675.09 542.27h33.46v51.74h-33.46z" fill="#69a0ef" transform="matrix(-1 0 0 -1 1383.63 1136.28)"/><path d="m722.88 512.04h31.07v81.96h-31.07z" fill="#69a0ef" transform="matrix(-1 0 0 -1 1476.83 1106.05)"/><path d="m770.68 501h31.07v93.01h-31.07z" fill="#69a0ef" transform="matrix(-1 0 0 -1 1572.43 1095.01)"/><path d="m819.07 512.04h30.47v81.96h-30.47z" fill="#69a0ef" transform="matrix(-1 0 0 -1 1668.62 1106.05)"/><path d="m863.88 553.32h34.05v40.69h-34.05z" fill="#69a0ef" transform="matrix(-1 0 0 -1 1761.82 1147.33)"/><path d="m911.68 492.86h31.07v101.15h-31.07z" fill="#69a0ef" transform="matrix(-1 0 0 -1 1854.42 1086.87)"/><path d="m960.07 512.04h30.47v81.96h-30.47z" fill="#69a0ef" transform="matrix(-1 0 0 -1 1950.61 1106.05)"/><path d="m1007.87 528.32h31.07v65.69h-31.07z" fill="#69a0ef" transform="matrix(-1 0 0 -1 2046.8 1122.33)"/><path d="m1052.68 558.55h34.05v35.46h-34.05z" fill="#69a0ef" transform="matrix(-1 0 0 -1 2139.41 1152.56)"/><path d="m1101.07 531.23h31.07v62.78h-31.07z" fill="#69a0ef" transform="matrix(-1 0 0 -1 2233.21 1125.24)"/><path d="m1139.91 547.5h31.07v46.5h-31.07z" fill="#69a0ef" transform="matrix(-1 0 0 -1 2310.88 1141.51)"/><path d="m502.77 577.61 47.2-35.03 47.55 13.43 46.85-43.6 47.2 49.35 47.2-36.51 47.2-20.19 47.2 17.33 47.2 39.22 47.19-60.93 47.2 26.97 48.31 11.49 46.09 28.35 47.5-22.06 46.9 11.84" fill="none" stroke="#ffaa4b" stroke-linejoin="round" stroke-width="8.35"/><ellipse cx="502.77" cy="577.61" fill="#ffaa4b" rx="8.34" ry="8.11"/><ellipse cx="549.97" cy="542.67" fill="#ffaa4b" rx="8.34" ry="8.11"/><ellipse cx="597.17" cy="556.11" fill="#ffaa4b" rx="8.34" ry="8.11"/><ellipse cx="644.37" cy="512.41" fill="#ffaa4b" rx="8.34" ry="8.11"/><ellipse cx="691.57" cy="561.76" fill="#ffaa4b" rx="8.34" ry="8.11"/><ellipse cx="738.77" cy="525.21" fill="#ffaa4b" rx="8.34" ry="8.11"/><ellipse cx="785.97" cy="505.15" fill="#ffaa4b" rx="8.34" ry="8.11"/><ellipse cx="833.17" cy="522.41" fill="#ffaa4b" rx="8.34" ry="8.11"/><ellipse cx="880.36" cy="561.47" fill="#ffaa4b" rx="8.34" ry="8.11"/><ellipse cx="927.56" cy="500.68" fill="#ffaa4b" rx="8.34" ry="8.11"/><ellipse cx="974.76" cy="527.61" fill="#ffaa4b" rx="8.34" ry="8.11"/><ellipse cx="1021.96" cy="539.14" fill="#ffaa4b" rx="8.34" ry="8.11"/><ellipse cx="1069.16" cy="567.47" fill="#ffaa4b" rx="8.34" ry="8.11"/><ellipse cx="1116.36" cy="545.52" fill="#ffaa4b" rx="8.34" ry="8.11"/><ellipse cx="1154.6" cy="557.27" fill="#ffaa4b" rx="8.34" ry="8.11"/><g fill="#545454"><path d="m1099.56 292.57v1.5q.54 0 1.07.07c.36 0 .71.08 1.05.14s.67.12 1 .19a6.41 6.41 0 0 1 .79.23l-.6 2.3c-.6-.15-1.16-.27-1.66-.35a11.12 11.12 0 0 0 -1.62-.12v3.7l.5.08a8.26 8.26 0 0 1 1.6.42 3.72 3.72 0 0 1 1.23.74 3.23 3.23 0 0 1 .78 1.16 4.42 4.42 0 0 1 .28 1.65v.25a3.93 3.93 0 0 1 -1.08 2.9 5.2 5.2 0 0 1 -3.3 1.3v1.73h-1.5v-1.67a16.47 16.47 0 0 1 -2.22-.24 9.89 9.89 0 0 1 -2.07-.57l.67-2.32a11 11 0 0 0 1.73.46 13.86 13.86 0 0 0 1.9.21v-3.74h-.24a8.39 8.39 0 0 1 -1.72-.47 4.3 4.3 0 0 1 -1.29-.78 3.09 3.09 0 0 1 -.82-1.16 4.22 4.22 0 0 1 -.28-1.62v-.23a3.72 3.72 0 0 1 1.18-3 5.35 5.35 0 0 1 3.16-1.2v-1.56zm-3 5.72a1.55 1.55 0 0 0 .37 1.15 2.43 2.43 0 0 0 1.12.54v-3.34a2.06 2.06 0 0 0 -1.14.55 1.59 1.59 0 0 0 -.33 1.1zm4.51 6.27a1.57 1.57 0 0 0 -.38-1.15 2.42 2.42 0 0 0 -1.15-.56v3.42a2 2 0 0 0 1.16-.54 1.66 1.66 0 0 0 .39-1.18z"/><path d="m1099.56 328.55v1.5q.54 0 1.07.07c.36 0 .71.08 1.05.14s.67.12 1 .19a6.41 6.41 0 0 1 .79.23l-.6 2.3c-.6-.15-1.16-.27-1.66-.35a11.12 11.12 0 0 0 -1.62-.12v3.7l.5.08a8.26 8.26 0 0 1 1.6.42 3.72 3.72 0 0 1 1.23.74 3.23 3.23 0 0 1 .78 1.16 4.42 4.42 0 0 1 .28 1.65v.25a3.93 3.93 0 0 1 -1.08 2.9 5.2 5.2 0 0 1 -3.3 1.3v1.73h-1.5v-1.67a16.47 16.47 0 0 1 -2.22-.24 9.89 9.89 0 0 1 -2.07-.57l.67-2.32a11 11 0 0 0 1.73.46 13.86 13.86 0 0 0 1.9.21v-3.74h-.24a8.39 8.39 0 0 1 -1.72-.47 4.3 4.3 0 0 1 -1.29-.78 3.09 3.09 0 0 1 -.82-1.16 4.22 4.22 0 0 1 -.28-1.62v-.23a3.72 3.72 0 0 1 1.18-3 5.35 5.35 0 0 1 3.16-1.2v-1.56zm-3 5.72a1.55 1.55 0 0 0 .37 1.15 2.43 2.43 0 0 0 1.12.54v-3.34a2.06 2.06 0 0 0 -1.14.55 1.59 1.59 0 0 0 -.33 1.1zm4.51 6.27a1.57 1.57 0 0 0 -.38-1.15 2.42 2.42 0 0 0 -1.15-.56v3.42a2 2 0 0 0 1.16-.54 1.66 1.66 0 0 0 .39-1.17z"/><path d="m1099.56 364.57v1.5c.36 0 .72 0 1.07.07s.71.08 1.05.14.67.12 1 .19a6.91 6.91 0 0 1 .79.23l-.6 2.3a16.78 16.78 0 0 0 -1.66-.34 10.76 10.76 0 0 0 -1.62-.12v3.7l.5.08a8.67 8.67 0 0 1 1.6.42 3.73 3.73 0 0 1 1.23.74 3.21 3.21 0 0 1 .78 1.16 4.41 4.41 0 0 1 .28 1.65v.25a3.93 3.93 0 0 1 -1.08 2.9 5.21 5.21 0 0 1 -3.3 1.29v1.73h-1.5v-1.66a17.39 17.39 0 0 1 -2.22-.24 10.05 10.05 0 0 1 -2.07-.57l.67-2.32a11.25 11.25 0 0 0 1.73.46 13.45 13.45 0 0 0 1.9.21v-3.74h-.24a8.4 8.4 0 0 1 -1.72-.47 4.36 4.36 0 0 1 -1.29-.78 3.12 3.12 0 0 1 -.82-1.16 4.22 4.22 0 0 1 -.28-1.62v-.23a3.71 3.71 0 0 1 1.18-3 5.33 5.33 0 0 1 3.16-1.2v-1.57zm-3 5.72a1.54 1.54 0 0 0 .37 1.15 2.4 2.4 0 0 0 1.12.54v-3.34a2 2 0 0 0 -1.14.55 1.6 1.6 0 0 0 -.33 1.1zm4.51 6.27a1.56 1.56 0 0 0 -.38-1.15 2.39 2.39 0 0 0 -1.15-.57v3.43a2 2 0 0 0 1.16-.54 1.67 1.67 0 0 0 .39-1.17z"/><path d="m1099.56 400.58v1.5q.54 0 1.07.07c.36 0 .71.08 1.05.14s.67.12 1 .19a6.41 6.41 0 0 1 .79.23l-.6 2.3c-.6-.15-1.16-.27-1.66-.35a11.12 11.12 0 0 0 -1.62-.12v3.7l.5.08a8.26 8.26 0 0 1 1.6.42 3.72 3.72 0 0 1 1.23.74 3.23 3.23 0 0 1 .78 1.16 4.42 4.42 0 0 1 .28 1.65v.25a3.93 3.93 0 0 1 -1.08 2.9 5.2 5.2 0 0 1 -3.3 1.3v1.73h-1.5v-1.67a16.47 16.47 0 0 1 -2.22-.24 9.89 9.89 0 0 1 -2.07-.57l.67-2.32a11 11 0 0 0 1.73.46 13.86 13.86 0 0 0 1.9.21v-3.74h-.24a8.39 8.39 0 0 1 -1.72-.47 4.3 4.3 0 0 1 -1.29-.78 3.09 3.09 0 0 1 -.82-1.16 4.22 4.22 0 0 1 -.28-1.62v-.23a3.72 3.72 0 0 1 1.18-3 5.35 5.35 0 0 1 3.16-1.2v-1.56zm-3 5.72a1.55 1.55 0 0 0 .37 1.15 2.43 2.43 0 0 0 1.12.54v-3.34a2.06 2.06 0 0 0 -1.14.55 1.59 1.59 0 0 0 -.33 1.11zm4.51 6.27a1.57 1.57 0 0 0 -.38-1.15 2.42 2.42 0 0 0 -1.15-.56v3.42a2 2 0 0 0 1.16-.54 1.66 1.66 0 0 0 .39-1.17z"/><path d="m482 292.57v1.5q.54 0 1.07.07c.36 0 .71.08 1.05.14s.67.12 1 .19a6.41 6.41 0 0 1 .79.23l-.6 2.3c-.6-.15-1.16-.27-1.66-.35a11.12 11.12 0 0 0 -1.62-.12v3.7l.5.08a8.26 8.26 0 0 1 1.6.42 3.72 3.72 0 0 1 1.23.74 3.23 3.23 0 0 1 .78 1.16 4.42 4.42 0 0 1 .28 1.65v.25a3.93 3.93 0 0 1 -1.08 2.9 5.2 5.2 0 0 1 -3.3 1.3v1.73h-1.5v-1.67a16.47 16.47 0 0 1 -2.22-.24 9.89 9.89 0 0 1 -2.07-.57l.67-2.32a11 11 0 0 0 1.73.46 13.86 13.86 0 0 0 1.9.21v-3.74h-.24a8.39 8.39 0 0 1 -1.72-.47 4.3 4.3 0 0 1 -1.29-.78 3.09 3.09 0 0 1 -.82-1.16 4.22 4.22 0 0 1 -.28-1.62v-.23a3.72 3.72 0 0 1 1.18-3 5.35 5.35 0 0 1 3.16-1.2v-1.56zm-3 5.72a1.55 1.55 0 0 0 .37 1.15 2.43 2.43 0 0 0 1.12.54v-3.34a2.06 2.06 0 0 0 -1.14.55 1.59 1.59 0 0 0 -.35 1.1zm4.51 6.27a1.57 1.57 0 0 0 -.38-1.15 2.42 2.42 0 0 0 -1.15-.56v3.42a2 2 0 0 0 1.16-.54 1.66 1.66 0 0 0 .34-1.18z"/><path d="m482 328.55v1.5q.54 0 1.07.07c.36 0 .71.08 1.05.14s.67.12 1 .19a6.41 6.41 0 0 1 .79.23l-.6 2.3c-.6-.15-1.16-.27-1.66-.35a11.12 11.12 0 0 0 -1.62-.12v3.7l.5.08a8.26 8.26 0 0 1 1.6.42 3.72 3.72 0 0 1 1.23.74 3.23 3.23 0 0 1 .78 1.16 4.42 4.42 0 0 1 .28 1.65v.25a3.93 3.93 0 0 1 -1.08 2.9 5.2 5.2 0 0 1 -3.3 1.3v1.73h-1.5v-1.67a16.47 16.47 0 0 1 -2.22-.24 9.89 9.89 0 0 1 -2.07-.57l.67-2.32a11 11 0 0 0 1.73.46 13.86 13.86 0 0 0 1.9.21v-3.74h-.24a8.39 8.39 0 0 1 -1.72-.47 4.3 4.3 0 0 1 -1.29-.78 3.09 3.09 0 0 1 -.82-1.16 4.22 4.22 0 0 1 -.28-1.62v-.23a3.72 3.72 0 0 1 1.18-3 5.35 5.35 0 0 1 3.16-1.2v-1.56zm-3 5.72a1.55 1.55 0 0 0 .37 1.15 2.43 2.43 0 0 0 1.12.54v-3.34a2.06 2.06 0 0 0 -1.14.55 1.59 1.59 0 0 0 -.35 1.1zm4.51 6.27a1.57 1.57 0 0 0 -.38-1.15 2.42 2.42 0 0 0 -1.15-.56v3.42a2 2 0 0 0 1.16-.54 1.66 1.66 0 0 0 .34-1.17z"/><path d="m482 364.57v1.5c.36 0 .72 0 1.07.07s.71.08 1.05.14.67.12 1 .19a6.91 6.91 0 0 1 .79.23l-.6 2.3a16.78 16.78 0 0 0 -1.66-.34 10.76 10.76 0 0 0 -1.62-.12v3.7l.5.08a8.67 8.67 0 0 1 1.6.42 3.73 3.73 0 0 1 1.23.74 3.21 3.21 0 0 1 .78 1.16 4.41 4.41 0 0 1 .28 1.65v.25a3.93 3.93 0 0 1 -1.08 2.9 5.21 5.21 0 0 1 -3.3 1.29v1.73h-1.5v-1.66a17.39 17.39 0 0 1 -2.22-.24 10.05 10.05 0 0 1 -2.07-.57l.67-2.32a11.25 11.25 0 0 0 1.73.46 13.45 13.45 0 0 0 1.9.21v-3.74h-.24a8.4 8.4 0 0 1 -1.72-.47 4.36 4.36 0 0 1 -1.29-.78 3.12 3.12 0 0 1 -.82-1.16 4.22 4.22 0 0 1 -.28-1.62v-.23a3.71 3.71 0 0 1 1.18-3 5.33 5.33 0 0 1 3.16-1.2v-1.57zm-3 5.72a1.54 1.54 0 0 0 .37 1.15 2.4 2.4 0 0 0 1.12.54v-3.34a2 2 0 0 0 -1.14.55 1.6 1.6 0 0 0 -.35 1.1zm4.51 6.27a1.56 1.56 0 0 0 -.38-1.15 2.39 2.39 0 0 0 -1.15-.57v3.43a2 2 0 0 0 1.16-.54 1.67 1.67 0 0 0 .34-1.17z"/><path d="m482 400.58v1.5q.54 0 1.07.07c.36 0 .71.08 1.05.14s.67.12 1 .19a6.41 6.41 0 0 1 .79.23l-.6 2.3c-.6-.15-1.16-.27-1.66-.35a11.12 11.12 0 0 0 -1.62-.12v3.7l.5.08a8.26 8.26 0 0 1 1.6.42 3.72 3.72 0 0 1 1.23.74 3.23 3.23 0 0 1 .78 1.16 4.42 4.42 0 0 1 .28 1.65v.25a3.93 3.93 0 0 1 -1.08 2.9 5.2 5.2 0 0 1 -3.3 1.3v1.73h-1.5v-1.67a16.47 16.47 0 0 1 -2.22-.24 9.89 9.89 0 0 1 -2.07-.57l.67-2.32a11 11 0 0 0 1.73.46 13.86 13.86 0 0 0 1.9.21v-3.74h-.24a8.39 8.39 0 0 1 -1.72-.47 4.3 4.3 0 0 1 -1.29-.78 3.09 3.09 0 0 1 -.82-1.16 4.22 4.22 0 0 1 -.28-1.62v-.23a3.72 3.72 0 0 1 1.18-3 5.35 5.35 0 0 1 3.16-1.2v-1.56zm-3 5.72a1.55 1.55 0 0 0 .37 1.15 2.43 2.43 0 0 0 1.12.54v-3.34a2.06 2.06 0 0 0 -1.14.55 1.59 1.59 0 0 0 -.35 1.11zm4.51 6.27a1.57 1.57 0 0 0 -.38-1.15 2.42 2.42 0 0 0 -1.15-.56v3.42a2 2 0 0 0 1.16-.54 1.66 1.66 0 0 0 .34-1.17z"/><path d="m950.85 298.19h2.57l.52-3.41h2.64l-.52 3.41h2.16l-.46 2.36h-2.07l-.44 2.84h2.18l-.46 2.36h-2.07l-.52 3.46h-2.64l.52-3.46h-2.57l-.52 3.46h-2.64l.52-3.46h-2.05l.46-2.36h2l.44-2.84h-2.07l.46-2.36h2l.52-3.41h2.64zm-.81 5.2h2.57l.44-2.84h-2.57z"/><path d="m950.85 334.17h2.57l.52-3.41h2.64l-.52 3.41h2.16l-.46 2.36h-2.07l-.44 2.84h2.18l-.46 2.36h-2.07l-.52 3.46h-2.64l.52-3.46h-2.57l-.52 3.46h-2.64l.52-3.46h-2.05l.46-2.36h2l.44-2.84h-2.07l.46-2.36h2l.52-3.41h2.64zm-.81 5.2h2.57l.44-2.84h-2.57z"/><path d="m950.85 370.19h2.57l.52-3.41h2.64l-.52 3.41h2.16l-.46 2.36h-2.07l-.44 2.84h2.18l-.46 2.36h-2.07l-.52 3.46h-2.64l.52-3.46h-2.57l-.52 3.46h-2.64l.52-3.46h-2.05l.46-2.36h2l.44-2.84h-2.07l.46-2.36h2l.52-3.41h2.64zm-.81 5.2h2.57l.44-2.84h-2.57z"/><path d="m950.85 406.2h2.57l.52-3.41h2.64l-.52 3.41h2.16l-.46 2.36h-2.07l-.44 2.84h2.18l-.46 2.36h-2.07l-.52 3.46h-2.64l.52-3.46h-2.57l-.52 3.46h-2.64l.52-3.46h-2.05l.46-2.36h2l.44-2.84h-2.07l.46-2.36h2l.52-3.41h2.64zm-.81 5.2h2.57l.44-2.84h-2.57z"/><path d="m1056.64 294.61a4.56 4.56 0 0 1 1.74.29 2.74 2.74 0 0 1 1.13.81 3.21 3.21 0 0 1 .6 1.24 6.46 6.46 0 0 1 .18 1.58v.65a6.19 6.19 0 0 1 -.19 1.59 3.27 3.27 0 0 1 -.62 1.25 2.86 2.86 0 0 1 -1.13.81 4.4 4.4 0 0 1 -1.71.29 4.49 4.49 0 0 1 -1.79-.31 2.82 2.82 0 0 1 -1.14-.85 3.28 3.28 0 0 1 -.59-1.25 6.54 6.54 0 0 1 -.17-1.52v-.65a6.21 6.21 0 0 1 .19-1.62 3.06 3.06 0 0 1 .63-1.23 2.88 2.88 0 0 1 1.15-.79 4.64 4.64 0 0 1 1.72-.29zm0 6.5a1 1 0 0 0 1-.48 3.08 3.08 0 0 0 .28-1.5v-.54a3.09 3.09 0 0 0 -.28-1.59 1 1 0 0 0 -.92-.42 1.1 1.1 0 0 0 -1 .47 3.17 3.17 0 0 0 -.28 1.54v.54a3.22 3.22 0 0 0 .27 1.49 1 1 0 0 0 .92.48zm8.31-6.33h2.68l-8.11 14.22h-2.68zm2.92 5.91a4.61 4.61 0 0 1 1.74.29 2.79 2.79 0 0 1 1.13.81 3.24 3.24 0 0 1 .6 1.24 6.45 6.45 0 0 1 .18 1.58v.65a6.15 6.15 0 0 1 -.19 1.59 3.22 3.22 0 0 1 -.62 1.25 2.86 2.86 0 0 1 -1.13.81 4.4 4.4 0 0 1 -1.7.29 4.49 4.49 0 0 1 -1.79-.31 2.82 2.82 0 0 1 -1.14-.85 3.28 3.28 0 0 1 -.59-1.25 6.56 6.56 0 0 1 -.17-1.52v-.65a6.21 6.21 0 0 1 .19-1.62 3.09 3.09 0 0 1 .63-1.23 2.89 2.89 0 0 1 1.15-.79 4.6 4.6 0 0 1 1.69-.3zm0 6.5a1 1 0 0 0 1-.48 3.09 3.09 0 0 0 .28-1.5v-.54a3.09 3.09 0 0 0 -.28-1.59 1 1 0 0 0 -.92-.42 1.1 1.1 0 0 0 -1 .47 3.17 3.17 0 0 0 -.28 1.54v.54a3.22 3.22 0 0 0 .27 1.49 1 1 0 0 0 .89.48z"/><path d="m1056.64 330.59a4.56 4.56 0 0 1 1.74.29 2.74 2.74 0 0 1 1.13.81 3.21 3.21 0 0 1 .6 1.24 6.46 6.46 0 0 1 .18 1.58v.65a6.19 6.19 0 0 1 -.19 1.59 3.27 3.27 0 0 1 -.62 1.25 2.86 2.86 0 0 1 -1.13.81 4.4 4.4 0 0 1 -1.71.29 4.49 4.49 0 0 1 -1.79-.31 2.82 2.82 0 0 1 -1.14-.85 3.28 3.28 0 0 1 -.59-1.25 6.54 6.54 0 0 1 -.17-1.52v-.65a6.21 6.21 0 0 1 .19-1.62 3.06 3.06 0 0 1 .63-1.23 2.88 2.88 0 0 1 1.15-.79 4.64 4.64 0 0 1 1.72-.29zm0 6.5a1 1 0 0 0 1-.48 3.08 3.08 0 0 0 .28-1.5v-.54a3.09 3.09 0 0 0 -.28-1.59 1 1 0 0 0 -.92-.42 1.1 1.1 0 0 0 -1 .47 3.17 3.17 0 0 0 -.28 1.54v.54a3.22 3.22 0 0 0 .27 1.49 1 1 0 0 0 .92.48zm8.31-6.33h2.68l-8.11 14.24h-2.68zm2.92 5.91a4.61 4.61 0 0 1 1.74.29 2.79 2.79 0 0 1 1.13.81 3.24 3.24 0 0 1 .6 1.24 6.45 6.45 0 0 1 .18 1.58v.65a6.15 6.15 0 0 1 -.19 1.59 3.22 3.22 0 0 1 -.62 1.25 2.86 2.86 0 0 1 -1.13.81 4.4 4.4 0 0 1 -1.7.29 4.49 4.49 0 0 1 -1.79-.31 2.82 2.82 0 0 1 -1.14-.85 3.28 3.28 0 0 1 -.59-1.25 6.56 6.56 0 0 1 -.17-1.52v-.65a6.21 6.21 0 0 1 .19-1.62 3.09 3.09 0 0 1 .63-1.23 2.89 2.89 0 0 1 1.15-.79 4.6 4.6 0 0 1 1.69-.29zm0 6.5a1 1 0 0 0 1-.48 3.09 3.09 0 0 0 .28-1.5v-.54a3.09 3.09 0 0 0 -.28-1.59 1 1 0 0 0 -.92-.42 1.1 1.1 0 0 0 -1 .47 3.17 3.17 0 0 0 -.28 1.54v.54a3.22 3.22 0 0 0 .27 1.49 1 1 0 0 0 .89.48z"/><path d="m1056.64 366.61a4.56 4.56 0 0 1 1.74.29 2.76 2.76 0 0 1 1.13.81 3.24 3.24 0 0 1 .6 1.24 6.43 6.43 0 0 1 .18 1.58v.65a6.17 6.17 0 0 1 -.19 1.59 3.26 3.26 0 0 1 -.62 1.25 2.86 2.86 0 0 1 -1.13.81 5.2 5.2 0 0 1 -3.5 0 2.83 2.83 0 0 1 -1.14-.86 3.29 3.29 0 0 1 -.59-1.25 6.57 6.57 0 0 1 -.17-1.52v-.65a6.23 6.23 0 0 1 .19-1.62 3.09 3.09 0 0 1 .63-1.23 2.88 2.88 0 0 1 1.15-.79 4.65 4.65 0 0 1 1.72-.3zm0 6.5a1 1 0 0 0 1-.48 3.08 3.08 0 0 0 .28-1.5v-.54a3.1 3.1 0 0 0 -.28-1.59 1 1 0 0 0 -.92-.42 1.1 1.1 0 0 0 -1 .47 3.17 3.17 0 0 0 -.28 1.54v.54a3.22 3.22 0 0 0 .27 1.5 1 1 0 0 0 .92.48zm8.31-6.33h2.68l-8.11 14.22h-2.68zm2.92 5.91a4.56 4.56 0 0 1 1.74.29 2.76 2.76 0 0 1 1.13.81 3.22 3.22 0 0 1 .6 1.24 6.43 6.43 0 0 1 .18 1.58v.65a6.17 6.17 0 0 1 -.19 1.59 3.22 3.22 0 0 1 -.62 1.25 2.85 2.85 0 0 1 -1.13.81 4.4 4.4 0 0 1 -1.7.29 4.49 4.49 0 0 1 -1.79-.31 2.83 2.83 0 0 1 -1.14-.86 3.29 3.29 0 0 1 -.59-1.25 6.57 6.57 0 0 1 -.17-1.52v-.65a6.23 6.23 0 0 1 .19-1.62 3.13 3.13 0 0 1 .63-1.23 2.91 2.91 0 0 1 1.15-.79 4.66 4.66 0 0 1 1.69-.28zm0 6.5a1 1 0 0 0 1-.48 3.08 3.08 0 0 0 .28-1.5v-.54a3.1 3.1 0 0 0 -.28-1.59 1 1 0 0 0 -.92-.42 1.1 1.1 0 0 0 -1 .47 3.17 3.17 0 0 0 -.28 1.54v.54a3.21 3.21 0 0 0 .27 1.49 1 1 0 0 0 .89.48z"/><path d="m1056.64 402.62a4.56 4.56 0 0 1 1.74.29 2.74 2.74 0 0 1 1.13.81 3.21 3.21 0 0 1 .6 1.24 6.46 6.46 0 0 1 .18 1.58v.65a6.19 6.19 0 0 1 -.19 1.59 3.27 3.27 0 0 1 -.62 1.25 2.86 2.86 0 0 1 -1.13.81 4.4 4.4 0 0 1 -1.71.29 4.49 4.49 0 0 1 -1.79-.31 2.82 2.82 0 0 1 -1.14-.85 3.28 3.28 0 0 1 -.59-1.25 6.54 6.54 0 0 1 -.17-1.52v-.65a6.21 6.21 0 0 1 .19-1.62 3.06 3.06 0 0 1 .63-1.23 2.88 2.88 0 0 1 1.15-.79 4.64 4.64 0 0 1 1.72-.29zm0 6.5a1 1 0 0 0 1-.48 3.08 3.08 0 0 0 .28-1.5v-.54a3.09 3.09 0 0 0 -.28-1.59 1 1 0 0 0 -.92-.42 1.1 1.1 0 0 0 -1 .47 3.17 3.17 0 0 0 -.28 1.54v.54a3.22 3.22 0 0 0 .27 1.49 1 1 0 0 0 .92.49zm8.31-6.33h2.68l-8.09 14.26h-2.68zm2.92 5.91a4.61 4.61 0 0 1 1.74.29 2.79 2.79 0 0 1 1.13.81 3.24 3.24 0 0 1 .6 1.24 6.45 6.45 0 0 1 .18 1.58v.65a6.15 6.15 0 0 1 -.19 1.59 3.22 3.22 0 0 1 -.62 1.25 2.86 2.86 0 0 1 -1.13.81 4.4 4.4 0 0 1 -1.7.29 4.49 4.49 0 0 1 -1.79-.31 2.82 2.82 0 0 1 -1.14-.85 3.28 3.28 0 0 1 -.59-1.25 6.56 6.56 0 0 1 -.17-1.52v-.65a6.21 6.21 0 0 1 .19-1.62 3.09 3.09 0 0 1 .63-1.23 2.89 2.89 0 0 1 1.15-.79 4.6 4.6 0 0 1 1.69-.29zm0 6.5a1 1 0 0 0 1-.48 3.09 3.09 0 0 0 .28-1.5v-.54a3.09 3.09 0 0 0 -.28-1.59 1 1 0 0 0 -.92-.42 1.1 1.1 0 0 0 -1 .47 3.17 3.17 0 0 0 -.28 1.54v.54a3.22 3.22 0 0 0 .27 1.49 1 1 0 0 0 .89.48z"/></g><path d="m150.52 489.96h248.54v65.69h-248.54z" fill="#fff"/><path d="m178.42 506.23a10.23 10.23 0 0 1 3.9.66 6.2 6.2 0 0 1 2.53 1.83 7.26 7.26 0 0 1 1.35 2.79 14.42 14.42 0 0 1 .41 3.53v1.45a13.83 13.83 0 0 1 -.43 3.56 7.32 7.32 0 0 1 -1.4 2.81 6.41 6.41 0 0 1 -2.53 1.83 11.67 11.67 0 0 1 -7.85 0 6.34 6.34 0 0 1 -2.55-1.92 7.38 7.38 0 0 1 -1.33-2.81 14.75 14.75 0 0 1 -.38-3.42v-1.54a14 14 0 0 1 .43-3.63 6.94 6.94 0 0 1 1.42-2.77 6.45 6.45 0 0 1 2.58-1.78 10.43 10.43 0 0 1 3.85-.59zm0 14.57a2.28 2.28 0 0 0 2.16-1.08 6.9 6.9 0 0 0 .63-3.37v-1.21a7 7 0 0 0 -.63-3.56 2.31 2.31 0 0 0 -2.07-.93 2.46 2.46 0 0 0 -2.31 1.05 7.12 7.12 0 0 0 -.62 3.44v1.21a7.23 7.23 0 0 0 .6 3.35 2.33 2.33 0 0 0 2.19 1.1zm18.58-14.2h6l-18.15 32h-6zm6.55 13.26a10.22 10.22 0 0 1 3.9.66 6.2 6.2 0 0 1 2.53 1.83 7.22 7.22 0 0 1 1.35 2.79 14.42 14.42 0 0 1 .41 3.53v1.45a13.83 13.83 0 0 1 -.43 3.56 7.23 7.23 0 0 1 -1.4 2.81 6.4 6.4 0 0 1 -2.53 1.82 9.86 9.86 0 0 1 -3.82.66 10.08 10.08 0 0 1 -4-.7 6.34 6.34 0 0 1 -2.55-1.92 7.38 7.38 0 0 1 -1.33-2.81 14.75 14.75 0 0 1 -.38-3.42v-1.45a14 14 0 0 1 .43-3.63 7 7 0 0 1 1.42-2.77 6.54 6.54 0 0 1 2.58-1.78 10.46 10.46 0 0 1 3.83-.63zm0 14.57a2.28 2.28 0 0 0 2.16-1.08 6.9 6.9 0 0 0 .63-3.37v-1.21a7 7 0 0 0 -.63-3.56 2.3 2.3 0 0 0 -2.07-.94 2.46 2.46 0 0 0 -2.31 1.06 7.12 7.12 0 0 0 -.62 3.44v1.23a7.2 7.2 0 0 0 .6 3.35 2.32 2.32 0 0 0 2.2 1.09z" fill="#545454"/><path d="m260.24 218.71a10.23 10.23 0 0 1 3.9.66 6.2 6.2 0 0 1 2.53 1.83 7.26 7.26 0 0 1 1.33 2.8 14.42 14.42 0 0 1 .41 3.53v1.47a13.83 13.83 0 0 1 -.43 3.56 7.32 7.32 0 0 1 -1.4 2.81 6.41 6.41 0 0 1 -2.53 1.83 11.67 11.67 0 0 1 -7.85 0 6.34 6.34 0 0 1 -2.55-1.92 7.38 7.38 0 0 1 -1.33-2.81 14.75 14.75 0 0 1 -.32-3.47v-1.45a14 14 0 0 1 .43-3.63 6.94 6.94 0 0 1 1.42-2.77 6.45 6.45 0 0 1 2.58-1.78 10.43 10.43 0 0 1 3.81-.66zm0 14.57a2.28 2.28 0 0 0 2.16-1.08 6.9 6.9 0 0 0 .63-3.37v-1.21a7 7 0 0 0 -.63-3.56 2.31 2.31 0 0 0 -2.07-.93 2.46 2.46 0 0 0 -2.31 1.05 7.12 7.12 0 0 0 -.62 3.44v1.21a7.23 7.23 0 0 0 .6 3.35 2.33 2.33 0 0 0 2.2 1.1zm18.63-14.2h6l-18.15 32h-6zm6.55 13.26a10.22 10.22 0 0 1 3.9.66 6.2 6.2 0 0 1 2.53 1.83 7.22 7.22 0 0 1 1.35 2.79 14.42 14.42 0 0 1 .41 3.53v1.45a13.83 13.83 0 0 1 -.43 3.56 7.23 7.23 0 0 1 -1.4 2.81 6.4 6.4 0 0 1 -2.53 1.82 9.86 9.86 0 0 1 -3.82.66 10.08 10.08 0 0 1 -4-.7 6.34 6.34 0 0 1 -2.55-1.92 7.38 7.38 0 0 1 -1.33-2.81 14.75 14.75 0 0 1 -.38-3.42v-1.45a14 14 0 0 1 .43-3.63 7 7 0 0 1 1.42-2.77 6.54 6.54 0 0 1 2.58-1.78 10.46 10.46 0 0 1 3.78-.63zm0 14.57a2.28 2.28 0 0 0 2.16-1.08 6.9 6.9 0 0 0 .63-3.37v-1.21a7 7 0 0 0 -.63-3.56 2.3 2.3 0 0 0 -2.07-.94 2.46 2.46 0 0 0 -2.31 1.06 7.12 7.12 0 0 0 -.62 3.44v1.21a7.2 7.2 0 0 0 .6 3.35 2.32 2.32 0 0 0 2.15 1.1z" fill="#4d4d4d"/><path d="m256.49 506.23a10.23 10.23 0 0 1 3.9.66 6.2 6.2 0 0 1 2.53 1.83 7.26 7.26 0 0 1 1.35 2.79 14.42 14.42 0 0 1 .41 3.53v1.45a13.83 13.83 0 0 1 -.43 3.56 7.32 7.32 0 0 1 -1.4 2.81 6.41 6.41 0 0 1 -2.53 1.83 11.67 11.67 0 0 1 -7.85 0 6.34 6.34 0 0 1 -2.55-1.92 7.38 7.38 0 0 1 -1.33-2.81 14.75 14.75 0 0 1 -.38-3.42v-1.54a14 14 0 0 1 .43-3.63 6.94 6.94 0 0 1 1.42-2.77 6.45 6.45 0 0 1 2.58-1.78 10.43 10.43 0 0 1 3.85-.59zm0 14.57a2.28 2.28 0 0 0 2.16-1.08 6.9 6.9 0 0 0 .63-3.37v-1.21a7 7 0 0 0 -.63-3.56 2.31 2.31 0 0 0 -2.07-.93 2.46 2.46 0 0 0 -2.31 1.05 7.12 7.12 0 0 0 -.62 3.44v1.21a7.23 7.23 0 0 0 .6 3.35 2.33 2.33 0 0 0 2.19 1.1zm18.63-14.2h6l-18.15 32h-6zm6.55 13.26a10.22 10.22 0 0 1 3.9.66 6.2 6.2 0 0 1 2.53 1.83 7.22 7.22 0 0 1 1.35 2.79 14.42 14.42 0 0 1 .41 3.53v1.45a13.83 13.83 0 0 1 -.43 3.56 7.23 7.23 0 0 1 -1.4 2.81 6.4 6.4 0 0 1 -2.53 1.82 9.86 9.86 0 0 1 -3.82.66 10.08 10.08 0 0 1 -4-.7 6.34 6.34 0 0 1 -2.55-1.92 7.38 7.38 0 0 1 -1.33-2.81 14.75 14.75 0 0 1 -.38-3.42v-1.45a14 14 0 0 1 .43-3.63 7 7 0 0 1 1.42-2.77 6.54 6.54 0 0 1 2.58-1.78 10.46 10.46 0 0 1 3.78-.63zm0 14.57a2.28 2.28 0 0 0 2.16-1.08 6.9 6.9 0 0 0 .63-3.37v-1.21a7 7 0 0 0 -.63-3.56 2.3 2.3 0 0 0 -2.07-.94 2.46 2.46 0 0 0 -2.31 1.06 7.12 7.12 0 0 0 -.62 3.44v1.23a7.2 7.2 0 0 0 .6 3.35 2.32 2.32 0 0 0 2.15 1.09z" fill="#545454"/><path d="m347.78 506.23a10.23 10.23 0 0 1 3.9.66 6.2 6.2 0 0 1 2.53 1.83 7.26 7.26 0 0 1 1.35 2.79 14.42 14.42 0 0 1 .44 3.49v1.45a13.83 13.83 0 0 1 -.43 3.56 7.32 7.32 0 0 1 -1.4 2.81 6.41 6.41 0 0 1 -2.53 1.83 11.67 11.67 0 0 1 -7.85 0 6.34 6.34 0 0 1 -2.55-1.92 7.38 7.38 0 0 1 -1.33-2.81 14.75 14.75 0 0 1 -.38-3.42v-1.5a14 14 0 0 1 .43-3.63 6.94 6.94 0 0 1 1.42-2.77 6.45 6.45 0 0 1 2.58-1.78 10.43 10.43 0 0 1 3.82-.59zm0 14.57a2.28 2.28 0 0 0 2.16-1.08 6.9 6.9 0 0 0 .63-3.37v-1.21a7 7 0 0 0 -.63-3.56 2.31 2.31 0 0 0 -2.07-.93 2.46 2.46 0 0 0 -2.31 1.05 7.12 7.12 0 0 0 -.62 3.44v1.21a7.23 7.23 0 0 0 .6 3.35 2.33 2.33 0 0 0 2.19 1.1zm18.63-14.2h6l-18.15 32h-6zm6.55 13.26a10.22 10.22 0 0 1 3.9.66 6.2 6.2 0 0 1 2.53 1.83 7.22 7.22 0 0 1 1.35 2.79 14.42 14.42 0 0 1 .41 3.53v1.45a13.83 13.83 0 0 1 -.43 3.56 7.23 7.23 0 0 1 -1.4 2.81 6.4 6.4 0 0 1 -2.53 1.82 9.86 9.86 0 0 1 -3.82.66 10.08 10.08 0 0 1 -4-.7 6.34 6.34 0 0 1 -2.55-1.92 7.38 7.38 0 0 1 -1.33-2.81 14.75 14.75 0 0 1 -.38-3.42v-1.45a14 14 0 0 1 .43-3.63 7 7 0 0 1 1.42-2.77 6.54 6.54 0 0 1 2.58-1.78 10.46 10.46 0 0 1 3.78-.63zm0 14.57a2.28 2.28 0 0 0 2.16-1.08 6.9 6.9 0 0 0 .63-3.37v-1.21a7 7 0 0 0 -.63-3.56 2.3 2.3 0 0 0 -2.07-.94 2.46 2.46 0 0 0 -2.31 1.06 7.12 7.12 0 0 0 -.62 3.44v1.23a7.2 7.2 0 0 0 .6 3.35 2.32 2.32 0 0 0 2.15 1.09z" fill="#545454"/><path d="m150.52 569.59h248.54v62.78h-248.54z" fill="#fff"/><path d="m178.42 583.5a10.23 10.23 0 0 1 3.9.66 6.2 6.2 0 0 1 2.53 1.83 7.26 7.26 0 0 1 1.35 2.79 14.42 14.42 0 0 1 .41 3.53v1.45a13.83 13.83 0 0 1 -.43 3.56 7.32 7.32 0 0 1 -1.4 2.81 6.41 6.41 0 0 1 -2.53 1.83 11.67 11.67 0 0 1 -7.85 0 6.34 6.34 0 0 1 -2.55-1.92 7.38 7.38 0 0 1 -1.33-2.81 14.75 14.75 0 0 1 -.38-3.42v-1.45a14 14 0 0 1 .43-3.63 6.94 6.94 0 0 1 1.42-2.77 6.45 6.45 0 0 1 2.58-1.78 10.43 10.43 0 0 1 3.85-.68zm0 14.57a2.28 2.28 0 0 0 2.16-1.08 6.9 6.9 0 0 0 .63-3.37v-1.21a7 7 0 0 0 -.63-3.56 2.31 2.31 0 0 0 -2.07-.93 2.46 2.46 0 0 0 -2.31 1.05 7.12 7.12 0 0 0 -.62 3.44v1.21a7.23 7.23 0 0 0 .6 3.35 2.33 2.33 0 0 0 2.19 1.11zm18.58-14.19h6l-18.15 32h-6zm6.55 13.26a10.22 10.22 0 0 1 3.9.66 6.2 6.2 0 0 1 2.53 1.83 7.22 7.22 0 0 1 1.35 2.79 14.42 14.42 0 0 1 .41 3.53v1.45a13.83 13.83 0 0 1 -.43 3.56 7.23 7.23 0 0 1 -1.4 2.81 6.4 6.4 0 0 1 -2.53 1.82 9.86 9.86 0 0 1 -3.82.66 10.08 10.08 0 0 1 -4-.7 6.34 6.34 0 0 1 -2.55-1.92 7.38 7.38 0 0 1 -1.33-2.81 14.75 14.75 0 0 1 -.38-3.42v-1.45a14 14 0 0 1 .43-3.63 7 7 0 0 1 1.42-2.77 6.54 6.54 0 0 1 2.58-1.78 10.46 10.46 0 0 1 3.83-.63zm0 14.57a2.28 2.28 0 0 0 2.16-1.08 6.9 6.9 0 0 0 .63-3.37v-1.26a7 7 0 0 0 -.63-3.56 2.3 2.3 0 0 0 -2.07-.94 2.46 2.46 0 0 0 -2.31 1.06 7.12 7.12 0 0 0 -.62 3.44v1.21a7.2 7.2 0 0 0 .6 3.35 2.32 2.32 0 0 0 2.2 1.15z" fill="#545454"/><path d="m256.49 583.5a10.23 10.23 0 0 1 3.9.66 6.2 6.2 0 0 1 2.53 1.83 7.26 7.26 0 0 1 1.35 2.79 14.42 14.42 0 0 1 .41 3.53v1.45a13.83 13.83 0 0 1 -.43 3.56 7.32 7.32 0 0 1 -1.4 2.81 6.41 6.41 0 0 1 -2.53 1.83 11.67 11.67 0 0 1 -7.85 0 6.34 6.34 0 0 1 -2.55-1.92 7.38 7.38 0 0 1 -1.33-2.81 14.75 14.75 0 0 1 -.38-3.42v-1.45a14 14 0 0 1 .43-3.63 6.94 6.94 0 0 1 1.42-2.77 6.45 6.45 0 0 1 2.58-1.78 10.43 10.43 0 0 1 3.85-.68zm0 14.57a2.28 2.28 0 0 0 2.16-1.08 6.9 6.9 0 0 0 .63-3.37v-1.21a7 7 0 0 0 -.63-3.56 2.31 2.31 0 0 0 -2.07-.93 2.46 2.46 0 0 0 -2.31 1.05 7.12 7.12 0 0 0 -.62 3.44v1.21a7.23 7.23 0 0 0 .6 3.35 2.33 2.33 0 0 0 2.19 1.11zm18.63-14.2h6l-18.15 32h-6zm6.55 13.26a10.22 10.22 0 0 1 3.9.66 6.2 6.2 0 0 1 2.53 1.83 7.22 7.22 0 0 1 1.35 2.79 14.42 14.42 0 0 1 .41 3.53v1.45a13.83 13.83 0 0 1 -.43 3.56 7.23 7.23 0 0 1 -1.4 2.81 6.4 6.4 0 0 1 -2.53 1.82 9.86 9.86 0 0 1 -3.82.66 10.08 10.08 0 0 1 -4-.7 6.34 6.34 0 0 1 -2.55-1.92 7.38 7.38 0 0 1 -1.33-2.81 14.75 14.75 0 0 1 -.38-3.42v-1.45a14 14 0 0 1 .43-3.63 7 7 0 0 1 1.42-2.77 6.54 6.54 0 0 1 2.58-1.78 10.46 10.46 0 0 1 3.78-.62zm0 14.57a2.28 2.28 0 0 0 2.16-1.08 6.9 6.9 0 0 0 .63-3.37v-1.25a7 7 0 0 0 -.63-3.56 2.3 2.3 0 0 0 -2.07-.94 2.46 2.46 0 0 0 -2.31 1.06 7.12 7.12 0 0 0 -.62 3.44v1.21a7.2 7.2 0 0 0 .6 3.35 2.32 2.32 0 0 0 2.15 1.15z" fill="#545454"/><path d="m347.78 583.5a10.23 10.23 0 0 1 3.9.66 6.2 6.2 0 0 1 2.53 1.83 7.26 7.26 0 0 1 1.35 2.79 14.42 14.42 0 0 1 .41 3.53v1.45a13.83 13.83 0 0 1 -.43 3.56 7.32 7.32 0 0 1 -1.4 2.81 6.41 6.41 0 0 1 -2.53 1.83 11.67 11.67 0 0 1 -7.85 0 6.34 6.34 0 0 1 -2.55-1.92 7.38 7.38 0 0 1 -1.33-2.81 14.75 14.75 0 0 1 -.38-3.42v-1.45a14 14 0 0 1 .43-3.63 6.94 6.94 0 0 1 1.42-2.77 6.45 6.45 0 0 1 2.58-1.78 10.43 10.43 0 0 1 3.85-.68zm0 14.57a2.28 2.28 0 0 0 2.12-1.07 6.9 6.9 0 0 0 .63-3.37v-1.21a7 7 0 0 0 -.63-3.56 2.31 2.31 0 0 0 -2.07-.93 2.46 2.46 0 0 0 -2.31 1.05 7.12 7.12 0 0 0 -.62 3.44v1.21a7.23 7.23 0 0 0 .6 3.35 2.33 2.33 0 0 0 2.23 1.1zm18.63-14.2h6l-18.15 32h-6zm6.55 13.26a10.22 10.22 0 0 1 3.9.66 6.2 6.2 0 0 1 2.53 1.83 7.22 7.22 0 0 1 1.35 2.79 14.42 14.42 0 0 1 .41 3.53v1.45a13.83 13.83 0 0 1 -.43 3.56 7.23 7.23 0 0 1 -1.4 2.81 6.4 6.4 0 0 1 -2.53 1.82 9.86 9.86 0 0 1 -3.82.66 10.08 10.08 0 0 1 -4-.7 6.34 6.34 0 0 1 -2.55-1.92 7.38 7.38 0 0 1 -1.33-2.81 14.75 14.75 0 0 1 -.38-3.42v-1.45a14 14 0 0 1 .43-3.63 7 7 0 0 1 1.42-2.77 6.54 6.54 0 0 1 2.58-1.78 10.46 10.46 0 0 1 3.78-.62zm0 14.57a2.28 2.28 0 0 0 2.16-1.08 6.9 6.9 0 0 0 .63-3.37v-1.25a7 7 0 0 0 -.63-3.56 2.3 2.3 0 0 0 -2.07-.94 2.46 2.46 0 0 0 -2.31 1.06 7.12 7.12 0 0 0 -.74 3.44v1.21a7.2 7.2 0 0 0 .6 3.35 2.32 2.32 0 0 0 2.27 1.15z" fill="#545454"/><path d="m599.21 330.68h206.12v16.28h-206.12z" fill="#e2e2e2"/><path d="m599.21 333.58h160.71v11.04h-160.71z" fill="#8fc899"/><path d="m725.87 330.68h5.97v16.28h-5.97z" fill="#646464"/><path d="m343.14 156.48-26.74 26a52.39 52.39 0 0 0 -45.8-26.45c-1.08 0-2.15 0-3.21.1l-7.08-35.45a90.77 90.77 0 0 1 10.29-.59 89.76 89.76 0 0 1 72.54 36.39z" fill="#71b37c"/><path d="m260.23 157.07a52.15 52.15 0 0 0 -35.43 25.43l-26.74-26a89.29 89.29 0 0 1 55.13-34.7z" fill="#e2e2e2"/><path d="m274.14 208.38a7.94 7.94 0 0 1 -9.35-6.12 7.59 7.59 0 0 1 2.94-7.58l-7.5-37.61-7-35.28-3.23-15.79 7.08-1.34 3.19 16 7.08 35.45 7.42 37.19a7.69 7.69 0 0 1 -.67 15z" fill="#4d4d4d"/><path d="m272.18 331.4h5.23v225.84h-5.23z" fill="#e2e2e2" transform="matrix(0 -1 1 0 -169.53 719.12)"/><path d="m161.87 309.17h4.78v137.77h-4.78z" fill="#e2e2e2"/><path d="m181 373.28s24.33 11.94 48.1 4.74 43.17-39.57 81.7-31.72 48.27 13 71 11.23v67.9h-200.69z" fill="#69a0ef" opacity=".4"/><path d="m181 373.17s24.33 12 48.1 4.8 43.38-39.54 81.91-31.69 48.47 13 71.18 11.26" fill="none" stroke="#69a0ef" stroke-miterlimit="10" stroke-width="4.13"/></svg>