<svg viewBox="0 0 1400 1400" xmlns="http://www.w3.org/2000/svg"><rect fill="#fff" height="793.95" rx="20.27" width="500.76" x="409.91" y="4.05"/><path d="m890.4 8.11a16.22 16.22 0 0 1 16.22 16.22v753.4a16.22 16.22 0 0 1 -16.22 16.22h-460.22a16.22 16.22 0 0 1 -16.18-16.22v-753.4a16.22 16.22 0 0 1 16.18-16.22zm0-8.11h-460.22a24.35 24.35 0 0 0 -24.33 24.33v753.4a24.35 24.35 0 0 0 24.33 24.33h460.22a24.35 24.35 0 0 0 24.33-24.33v-753.4a24.35 24.35 0 0 0 -24.33-24.33z" fill="#e6e6e8"/><path d="m631.44 275.87a20.28 20.28 0 0 1 7.74 1.3 12.28 12.28 0 0 1 5 3.62 14.39 14.39 0 0 1 2.67 5.53 28.58 28.58 0 0 1 .81 7v2.88a27.42 27.42 0 0 1 -.86 7.05 14.5 14.5 0 0 1 -2.77 5.58 12.71 12.71 0 0 1 -5 3.62 23.14 23.14 0 0 1 -15.55-.1 12.56 12.56 0 0 1 -5.06-3.81 14.63 14.63 0 0 1 -2.63-5.56 29.24 29.24 0 0 1 -.76-6.78v-2.88a27.7 27.7 0 0 1 .86-7.2 13.76 13.76 0 0 1 2.82-5.48 12.79 12.79 0 0 1 5.11-3.53 20.66 20.66 0 0 1 7.62-1.24zm-.09 28.88a4.53 4.53 0 0 0 4.29-2.14q1.25-2.13 1.25-6.68v-2.41q0-5.2-1.25-7.07a4.58 4.58 0 0 0 -4.1-1.85c-2.23 0-3.75.69-4.58 2.09s-1.24 3.67-1.24 6.83v2.41q0 4.47 1.19 6.65t4.45 2.18zm36.94-28.15h11.93l-36 63.43h-11.91zm13 26.29a20.26 20.26 0 0 1 7.73 1.3 12.28 12.28 0 0 1 5 3.62 14.31 14.31 0 0 1 2.67 5.53 28.58 28.58 0 0 1 .81 7v2.88a27.42 27.42 0 0 1 -.86 7.05 14.33 14.33 0 0 1 -2.77 5.58 12.68 12.68 0 0 1 -5 3.61 19.55 19.55 0 0 1 -7.58 1.31 20 20 0 0 1 -8-1.39 12.56 12.56 0 0 1 -5.06-3.81 14.63 14.63 0 0 1 -2.63-5.56 29.24 29.24 0 0 1 -.76-6.78v-2.88a27.7 27.7 0 0 1 .86-7.2 13.92 13.92 0 0 1 2.82-5.48 13 13 0 0 1 5.11-3.53 20.73 20.73 0 0 1 7.64-1.24zm-.1 28.88a4.53 4.53 0 0 0 4.29-2.14q1.25-2.13 1.25-6.68v-2.41q0-5.2-1.25-7.07a4.56 4.56 0 0 0 -4.1-1.86c-2.23 0-3.75.7-4.58 2.1s-1.24 3.67-1.24 6.83v2.46c0 3 .39 5.18 1.19 6.64s2.25 2.14 4.43 2.14z" fill="#545454"/><path d="m795.78 152.53-53 51.58c-17.55-31.21-51.61-52.42-90.79-52.42-2.15 0-4.25.08-6.36.2l-14-70.26a179.92 179.92 0 0 1 20.37-1.17c59.26 0 111.74 28.44 143.78 72.07z" fill="#71b37c"/><path d="m631.42 153.69a103.38 103.38 0 0 0 -70.23 50.41l-53-51.58a177 177 0 0 1 109.27-68.77z" fill="#e2e2e2"/><path d="m659 255.4a15.75 15.75 0 0 1 -18.54-12.13 15 15 0 0 1 5.82-15l-14.86-74.56-14-69.94-6.23-31.21 14-2.65 6.32 31.73 14 70.26 14.7 73.71a15.24 15.24 0 0 1 -1.21 29.79z" fill="#545454"/><path d="m655.11 499.26h10.37v447.65h-10.37z" fill="#e2e2e2" transform="matrix(0 -1 1 0 -62.79 1383.38)"/><path d="m436.47 455.18h9.47v273.08h-9.47z" fill="#e2e2e2"/><path d="m474.3 582.27s48.22 23.68 95.35 9.39 85.57-78.44 162-62.88 95.62 25.72 140.62 22.22v134.64h-397.68z" fill="#69a0ef" opacity=".4"/><path d="m474.3 582s48.22 23.79 95.35 9.51 86-78.38 162.36-62.82 96.09 25.81 141.09 22.31" fill="none" stroke="#69a0ef" stroke-miterlimit="10" stroke-width="8.18"/><ellipse cx="132.86" cy="1335.28" opacity=".1" rx="31.31" ry="3.86"/><ellipse cx="242.63" cy="1331.39" opacity=".1" rx="57.47" ry="3.88"/><path d="m193.46 1300.14s-6 14-4.92 24.23 35.47 5.62 54.09 7 41.44 1.4 41.09-7.73-33.36-15.45-33.36-15.45l-44.6-8.08z" fill="#a66bad"/><path d="m145.35 1299.43s14.75 8.43 11.94 20.37-9.83 15.8-21.77 15.45-28.45-13.21-27.39-21.18 9.13-17.1 21.07-17.8 16.15 3.16 16.15 3.16z" fill="#a66bad"/><path d="m195.57 1251.32s0 42.5-2.11 48.82 1.76 17.21 23.53 16.51 30.2 2.17 36.17 0-2.81-8.46-2.81-8.46-32.66-11.8-34.07-23.81-1.4-33.08-1.4-33.08z" fill="#f9b77a"/><path d="m151.32 1246.4s8.78 54.79 0 63.22-39.32 5.27-29.15-12.62 16.6-47.76 15.5-52.68z" fill="#f9b77a"/><path d="m118.65 694.31s-33.71 68.83-32.31 121.51 9.13 264.11 13.35 294.31c3.66 26.25 18.47 117.78 22.28 141.27a6.59 6.59 0 0 0 6.51 5.53h27.7a6.6 6.6 0 0 0 6.57-6c2.19-23.46 10.66-108.56 19.12-121.86 0 0 2.31 91.34.64 120.88a6.59 6.59 0 0 0 6.59 7h28.43a6.58 6.58 0 0 0 6.38-4.9c7.57-28.64 45.9-174.76 53.49-224.08 8.43-54.79 45-217.75-8.43-333.64z" fill="#5290e9"/><path d="m320.93 591.75s29.5 54.09 40.74 42.85 47.76-54.09 47.76-54.09 5.62-19 0-28.1 2.11-27.39 8.43-13.35 14.75-40.74 23.88-37.23 3.51 19.67 0 37.23c0 0 23.88 4.21 16.86 18.26s-6.32 19.67-23.88 31.61-50.57 86.4-66 92-44.25-15.45-70.24-74.46z" fill="#f9b77a"/><path d="m47 591.75s-15.45 51.25-7 66.74 38.46 67.43 42.32 62.87 14.93-27.22 39.33-20c17.5 5.16 7.65 13.36.67 17.58a50.15 50.15 0 0 0 -14.57 13.06 88.15 88.15 0 0 0 -12.29 23.9c-8.06 23.75-75.85-57.73-87.46-83.72s-13.67-36.18 14.77-82.18z" fill="#f9b77a"/><path d="m275.05 609.31c-14 19.68-6.08 85-6.08 85h-150.32s-9.83-44.25-21.08-75.16-11.28-132.06-11.28-132.06c11.94-6.82 32.79-9.5 47.3-10.56 9.34-.67 16.06-.67 16.06-.67l77.45 2.68a91.84 91.84 0 0 1 27.82 8c-4.74 42.1-12.18 81.53-12.18 81.53s22.86-1.39 39.08-33.09c.53 7.28 1.58 13.92 3.54 17.17 5.64 9.4 3.75 37.5-10.31 57.16z" fill="#dfe7fb"/><path d="m281.82 535c-16.22 31.7-39.08 33.09-39.08 33.09s7.44-39.43 12.18-81.53a87.63 87.63 0 0 1 26.68 18.78 281.25 281.25 0 0 0 .22 29.66z" fill="#fbdbdc"/><path d="m281.6 505.35s42.14 63.92 51.28 92l-32.31 28.8-45.66-60.41z" fill="#dfe7fb"/><path d="m86.3 487.1s-25.24-1.4-44.91 42.14-30.91 68.84-30.91 68.84l45 21.07 50.52-81.48z" fill="#dfe7fb"/><path d="m289.09 517a116.06 116.06 0 0 1 -7.27 18c-16.22 31.7-39.08 33.09-39.08 33.09s7.44-39.43 12.18-81.53c4.39-39 6.47-80.36-1.87-94.7l-126 16.36 6.51 68.29c-14.5 1.06-35.36 3.73-47.3 10.56 0 0-17.75-96.93-11.65-147.5s27.62-104.43 104.42-104.43 119.39 57.13 119.39 111.92 6.1 120.66-9.33 169.94z" fill="#201c19"/><path d="m155.92 427.22s-2.64 52.45-10.56 59.88c0 0 16.83 11.83 45.86 11.83s36.51-11.83 36.51-11.83c-7.92-7.43-10.56-59.88-10.56-59.88z" fill="#f9b77a"/><path d="m219.45 454.94c-9.15 4.84-20.51 8-34.54 8.09a57.47 57.47 0 0 1 -31.36-9.03c.71-6 1.23-11.9 1.6-16.58a57.13 57.13 0 0 0 29.44 8c13.34 0 24.31-2.85 33.23-7.27.38 4.8.91 10.72 1.63 16.79z" fill="#e29456"/><path d="m112.1 343.34s-10.3-11.24-13.58 0-2.81 36.53 15.92 37.46c0 0 18.73 64.62 70.24 64.62s67.43-42.42 68.32-53.54 4.21-72.89-41.68-86-56.19-10.3-58.07-25.29c.06 0-7.44 40.74-41.15 62.75z" fill="#f9b77a"/><path d="m155.23 437.38c-.82 10.6-2.45 27.23-5.19 38.5h-.41s-6.72 0-16.06.67l-6.51-68.28c6.5 10.53 15.71 21.78 28.17 29.11z"/><path d="m254.91 486.58a91.84 91.84 0 0 0 -27.82-8l-3.39-.12c-3.07-10.93-4.9-28.8-5.79-40.28 25.51-12.63 34.43-38.06 35.13-46.27 8.33 14.31 6.26 55.64 1.87 94.67z"/><ellipse cx="1248.34" cy="1395.92" opacity=".1" rx="44.14" ry="4.08"/><ellipse cx="1019.63" cy="1383.55" opacity=".1" rx="97.09" ry="5.41"/><path d="m785.53 228.48s10.07-11.82 0-36.78-18.88-35.91-26.53-33.7 4.19 25.4 2.87 27.15-14-20.58-23.65-17.52-23.65 10.95-19.27 32 27.15 46 27.15 46l32 13.14z" fill="#ecc19c"/><path d="m1281.9 1366.27s-2.15 20.34-7.18 27-34.24 11.08-49.75 0-8.72-41.09-8.72-41.09l43.56 13.7z" fill="#231f20"/><path d="m1265.84 1325.18s16.67 18.73 16.06 41.09-16.31 24.17-33.84 24.17-34.44-14.5-33.23-32.63 4.23-42.9 9.06-45.92 41.95 13.29 41.95 13.29z" fill="#603813"/><path d="m1086.74 1361.83s2.82 14.1 0 17.32-54.78-2-74.52 3.63-68.07 5-72.91-6.38 0-14.57 0-14.57z" fill="#231f20"/><path d="m1092 1313.9s5.64 46.32-2.82 54.78-58.41 1.61-74.52 3.63-61.23 9.67-74.92-3.22 27-32.22 54-29.4 39.07-28.17 39.07-28.17z" fill="#603813"/><path d="m1316.48 748s8.32 115.6-11 190.53-12.08 166.76-12.08 183.68c0 15.79 3.16 142.14-14.11 193.28a14.2 14.2 0 0 1 -13.43 9.73h-38a14.1 14.1 0 0 1 -14-12.21c-1.86-13.82-5.16-36.19-8.71-50-5.44-21.15-19.94-102.11-16.31-142s-2.42-61-6-71.3-32-122.65-32-122.65h-6.65s-27.79 139-23.56 153.47c4.1 14 8.95 164.33-22.23 232.32a13.9 13.9 0 0 1 -9.83 7.81c-8.57 1.79-23.55 4.57-33.8 4.57-8.19 0-16.2-2.84-21.82-5.44a14 14 0 0 1 -8.16-12c-2.17-45.36-13.16-274-15.34-297.93-2.42-26.59-13.29-238.86-6-260.21s269.48-16.51 269.48-16.51z"/><path d="m1095.2 334.28s-45.92 16.92-64 15.71-118.42-15.91-141.38-19.54-70.09-97.88-101.51-114.8l-44.71 24.17s42.29 110 62.84 126.88 153.47 82.37 181.26 83.58 107.5-116 107.5-116z" fill="#af4691"/><path d="m1233 342.74s61.63 9.67 87 42.29 84.59 135.34 79.76 170.39-9.67 73.71-96.67 130.51l-15.71-36.25s15.62-19.34 15.62-39.88 15.71-49.54 27.79-55.59l-29-39.88s-14.16 112.14-13.09 122 27.78 111.67 27.78 111.67-132.66 30.61-221.28 30.61-91.84-29-91.84-29-8.46-101.1-4.23-139.17 13.29-77.94 12.08-100.9-23.56-59.21-23.56-59.21l43.5-77.94 64-38.06z" fill="#af4691"/><path d="m1201.94 291.18 11.69 22.16 6.94 16.41-35.95 46.02-26.18-6.85-33.03 34.24-9.26-42.7-7.61-36.25 16.87-17.72 4.83-15.31z" fill="#ecc19c"/><path d="m1223.95 672.25c2 7 23.39-3.87 25-2.66s-18.95 12.91-16.1 21.75 10.05 21.75 29.39 17.74c15.81-3.33 34.08-17.93 40.17-23.15-1.4-5.51-2.76-10.92-4.06-16.1l-9.52-22s-10.88-9.28-33.84 0-32.99 17.36-31.04 24.42z" fill="#ecc19c"/><path d="m1109.51 323.31c6.91 4.78 16.1 8.27 28.42 9.33 33.5 2.9 58.44-13.25 72.31-25.81l-4.93-9.28c-14.45 11.7-37.51 24.26-67.38 21.65a64.67 64.67 0 0 1 -20-4.74z" opacity=".1"/><path d="m1213.63 313.34s15.71 7.25 19.33 29.4-53.17 51.16-53.17 51.16l-21.35-25s59.21-31.8 55.19-55.56z" fill="#83356d"/><path d="m1125.41 306.49s-18.13 9.67-9.26 54l-17.73 20.51s-26.98-56.38 26.99-74.51z" fill="#83356d"/><path d="m1089.22 258.55c.11-4.18-2.47-20.93-3.26-24.36s-.8-18-.8-18 .06-3.43.2-8.91c.46-16.92 1.75-53.45 4.74-69.21 3.95-20.89 20.4-35 30.08-39.65s6.73 5.68 24.22 7.07 20.65-8.38 35.51-8.64 25.63 18.68 28.66 27.91-5.5 28.29-1.5 30.35 14.21 18.32 12.45 22.07-1.2 10.72.3 12.54-1.21 14.33-1.47 17.1 2 8.86 4.48 8.82.54-8.62 3.42-15.34 7.3-3.21 10.83-2 8.07 9.16 8.43 14.23a2.17 2.17 0 0 1 0 .24c.15 5.28-5.86 19.65-8.52 21.6s-1.64 5.43-3.65 8.88-7.47 2.08-7.47 2.08-.17 29.86-3.24 34.51-34.07 43.81-84.74 39.38-48.98-49.37-48.67-60.67z" fill="#ecc19c"/><path d="m1171.62 85.49c-24.34-4-41.37-3.95-63.12 15.16s-33.09 47-30 61.14a224.9 224.9 0 0 1 4.19 37.39c0 3.21.49 6.79 2.71 8.11.46-16.92 1.13-32.3 2.3-48.3 2.16-29.48 14.19-34.22 14.19-34.22h100.9c-.15 9.52-3.78 36.41 1.51 36.56 15.06.43 11.78 29.15 11.78 29.15l-.71 21.88a3.28 3.28 0 0 0 3.28 3.28h4.21c2.52 0 .54-8.62 3.42-15.34s7.3-3.21 10.83-2 8.07 9.16 8.43 14.23a2.17 2.17 0 0 1 0 .24 6 6 0 0 0 2.23-3.11s4.68-54.18-7.67-78.35-32.28-39.91-68.48-45.82z" fill="#603813"/><ellipse cx="660.29" cy="1270.17" opacity=".1" rx="251.86" ry="9.01"/></svg>